<svg width="1366" height="709" viewBox="0 0 1366 709" fill="none" xmlns="http://www.w3.org/2000/svg">
<g clip-path="url(#clip0)">
<path d="M1401 -126H0V893H1401V-126Z" fill="#002741"/>
<g opacity="0.2">
<path d="M515.469 984.639C514.761 984.639 514.054 984.285 513.346 983.578C498.487 964.825 487.52 943.95 476.906 923.782C470.538 911.753 462.047 902.907 451.08 896.538C427.022 883.093 399.78 866.464 377.492 843.465C359.448 824.713 349.896 802.068 348.481 774.117V771.994C347.773 755.718 347.066 739.089 343.882 723.167C337.16 687.077 321.947 671.155 287.63 664.786C264.987 660.541 243.052 655.587 224.302 651.341C209.442 647.803 195.998 648.511 183.262 653.464C175.833 656.295 167.695 658.772 159.205 660.894C143.992 664.786 129.486 659.479 122.411 647.096C115.335 634.712 116.396 624.097 126.302 609.591C134.086 597.915 145.761 591.192 156.728 584.116C158.497 583.054 160.62 581.639 162.389 580.577C180.078 569.609 198.475 557.933 212.98 541.657C221.825 531.75 226.778 523.259 224.302 511.936C221.825 498.845 215.457 487.523 210.504 479.385C194.23 452.495 170.88 430.912 138.685 412.867C113.566 398.714 99.7682 376.777 97.2917 347.057C95.5227 324.766 100.476 306.014 112.505 289.03C119.227 279.477 124.887 268.863 130.548 258.956L130.902 258.248C134.793 251.172 134.086 244.803 129.133 238.788C128.071 237.726 127.01 236.311 125.948 234.896C124.18 232.773 122.764 231.004 120.995 229.235C92.3386 202.698 96.2303 160.594 114.627 134.411C125.948 118.135 144.345 118.135 156.728 124.858C169.818 131.934 179.37 143.61 184.323 159.178C187.508 168.732 189.63 178.992 191.399 188.899L192.461 194.914C194.23 203.406 198.829 208.006 207.673 210.128C218.641 212.605 229.608 210.482 241.283 207.652C285.153 196.683 323.362 184.3 357.68 169.793C373.6 163.07 391.289 159.886 408.625 161.301H409.686C427.376 162.717 445.773 164.132 463.108 159.886C471.599 157.763 480.09 153.517 487.873 149.272L492.119 147.149C499.195 143.61 505.209 143.257 510.162 146.087C521.13 152.456 534.22 170.854 530.328 188.899C528.913 195.268 528.205 201.991 528.913 208.713C529.974 219.682 536.342 228.527 542.357 236.311C555.801 253.294 555.447 267.093 541.295 284.077C537.758 288.676 533.158 292.568 529.267 296.46C525.729 299.645 522.191 303.183 519.361 306.367C501.317 326.889 483.628 347.41 466.646 367.224C462.755 371.824 459.217 376.424 455.679 381.023C452.141 385.623 448.603 390.576 444.711 395.176C438.697 402.252 430.56 402.96 422.777 396.945C417.116 392.345 410.748 387.392 405.441 381.731C398.011 373.947 389.167 367.932 378.553 362.978C361.217 354.841 346.358 355.194 333.622 363.686C315.933 375.362 305.673 393.761 295.767 412.867C287.276 429.143 283.384 446.48 279.846 467.709C278.431 475.493 278.431 483.985 279.846 492.123C281.261 499.553 286.214 504.506 297.182 508.044C299.658 508.752 301.781 509.46 304.258 510.521C318.409 515.121 332.914 520.074 344.589 529.981C356.264 539.888 367.232 550.503 376.784 559.702C386.336 568.901 396.95 573.147 410.04 573.147C434.452 572.793 455.679 563.594 473.368 554.749C482.213 550.149 490.35 544.488 498.487 538.827C501.317 537.058 503.794 535.289 506.624 533.519C528.559 519.013 551.202 517.598 573.844 528.92C581.274 532.812 588.349 537.058 595.071 540.95C599.67 543.78 604.624 546.611 609.577 549.441C619.836 555.102 631.511 561.471 644.248 567.84C648.139 569.963 652.385 571.732 656.277 573.501C663.352 576.685 670.782 580.224 677.504 584.469C689.886 592.254 698.377 603.93 706.868 614.898C707.93 616.313 709.345 618.082 710.406 619.498C717.128 628.343 721.02 634.004 725.619 634.358C729.511 634.712 734.817 631.881 744.723 624.097C757.814 613.836 770.904 606.406 784.702 602.16C805.929 595.438 822.203 587.654 836.001 577.393C842.723 572.44 850.86 566.425 859.351 561.825C875.271 552.98 896.499 543.073 921.617 544.134C936.477 544.842 950.274 549.441 961.595 553.687C983.176 561.825 999.097 573.855 1010.42 591.192C1026.69 616.313 1045.09 631.527 1067.73 639.311C1085.07 645.326 1098.16 643.557 1108.77 634.358C1113.37 630.466 1117.97 625.159 1122.57 618.436C1129.64 607.822 1136.72 596.853 1143.09 586.239C1145.92 581.993 1148.75 577.393 1151.58 573.147C1159.01 561.471 1168.56 552.626 1180.59 546.257C1202.17 534.935 1224.81 534.227 1242.15 535.289C1257.01 535.996 1269.04 540.242 1278.59 548.026C1291.33 558.641 1296.28 570.317 1293.8 584.469C1292.74 590.131 1293.45 596.499 1295.22 603.222C1296.28 606.406 1297.69 608.529 1299.82 609.237C1301.94 609.591 1304.42 608.529 1306.89 606.052C1309.72 602.868 1311.85 598.976 1313.97 594.73L1314.68 593.669C1317.51 588.008 1320.69 581.993 1328.12 578.808C1336.26 575.27 1344.75 575.27 1352.18 578.455C1360.31 581.993 1366.33 588.715 1370.22 597.915C1375.88 611.714 1376.94 625.866 1378.36 640.019C1379.07 646.388 1379.42 652.757 1379.77 659.125C1380.48 670.094 1381.19 681.77 1382.96 692.738C1385.43 708.66 1392.51 721.398 1404.54 731.305C1414.09 739.089 1425.41 745.457 1440.98 751.472C1442.39 751.826 1443.1 753.595 1442.39 754.657C1442.04 756.072 1440.27 756.78 1439.21 756.072C1422.93 749.703 1411.26 743.334 1401.35 735.197C1388.26 724.582 1380.48 710.429 1378 693.446C1376.23 682.124 1375.53 670.448 1374.82 659.479C1374.47 653.11 1374.11 647.096 1373.4 640.727C1371.99 626.928 1370.93 612.775 1365.62 599.684C1362.44 591.546 1357.13 585.531 1350.41 582.7C1344.39 580.224 1337.32 580.224 1330.24 583.054C1324.58 585.531 1322.11 590.131 1319.63 595.438L1318.92 596.853C1316.8 601.453 1314.32 605.699 1311.14 609.237C1307.6 613.129 1303 614.898 1299.11 613.836C1295.22 612.775 1292.39 609.591 1290.97 604.283C1288.85 596.853 1288.5 589.423 1289.56 583.408C1291.68 571.024 1287.43 561.117 1276.11 551.564C1267.62 544.488 1256.65 540.596 1242.86 539.888C1226.23 538.827 1204.29 539.534 1184.13 550.149C1172.81 556.164 1163.96 564.302 1156.89 575.624C1154.06 579.87 1151.23 584.469 1148.75 588.715C1142.03 599.33 1134.95 610.298 1127.88 620.913C1123.28 627.635 1118.32 633.297 1113.37 637.542C1100.99 648.157 1086.48 649.926 1067.38 643.557C1043.67 635.419 1024.57 619.498 1007.59 593.315C996.974 577.039 981.761 565.717 961.242 557.933C947.09 552.626 935.415 549.088 922.679 548.38C898.975 547.318 878.455 556.872 863.242 565.363C855.459 569.609 848.737 574.562 840.6 580.577C826.449 591.192 809.82 599.33 787.886 606.052C774.442 610.298 762.059 617.375 749.323 627.282C739.77 635.066 732.695 639.312 726.68 638.604C719.958 637.896 715.713 631.881 707.93 621.621C706.868 620.205 705.453 618.436 704.392 616.667C696.255 605.699 688.117 594.73 676.442 587.3C670.074 583.408 662.645 579.87 655.923 576.685C651.677 574.916 647.786 572.793 643.54 570.67C630.45 563.948 619.129 557.933 608.515 551.918C603.562 549.088 598.609 546.257 594.01 543.426C587.288 539.181 580.212 534.935 572.783 531.397C551.909 520.782 531.036 522.197 510.87 535.642C508.039 537.411 505.563 539.181 503.086 540.95C494.949 546.611 486.458 552.272 477.26 556.872C460.278 565.717 437.282 575.624 411.809 575.978C397.658 576.332 385.629 571.378 375.015 561.117C365.463 551.918 354.495 541.303 343.174 531.397C332.207 521.843 318.055 517.244 304.611 512.644C302.135 511.936 299.658 511.229 297.536 510.167C289.045 507.337 278.785 502.383 277.016 490.353C275.601 481.862 275.601 472.662 277.016 464.525C280.554 442.942 284.799 424.897 293.29 407.914C303.55 388.1 314.164 368.993 332.914 356.61C347.066 347.057 363.694 346.703 382.798 355.548C394.12 360.856 403.318 367.224 411.102 375.362C416.408 380.669 422.069 385.623 427.73 389.869C431.621 392.699 437.282 395.176 442.589 388.807C446.48 384.208 450.018 379.608 453.202 375.008C456.74 370.409 460.278 365.455 464.17 360.856C481.152 341.042 498.841 320.52 516.884 299.999C520.068 296.46 523.606 292.922 527.144 289.738C531.036 285.846 535.281 281.954 538.819 277.708C551.202 262.848 551.555 251.525 539.527 236.665C533.158 228.527 526.083 218.62 525.021 206.236C524.314 199.16 525.021 191.73 526.436 184.653C529.974 169.085 518.653 153.164 508.747 147.502C505.209 145.38 500.964 145.733 495.657 148.564L491.411 150.687C483.274 154.933 474.43 159.532 465.585 162.009C447.542 166.609 428.437 164.84 410.394 163.424H409.333C392.705 162.009 376.077 164.84 360.864 171.208C326.192 186.069 287.983 198.452 243.76 209.421C231.023 212.605 219.702 214.728 207.673 211.898C197.06 209.421 190.692 203.052 188.569 192.791L187.154 186.423C185.385 176.869 183.262 166.609 180.078 157.409C175.479 143.257 166.988 132.642 154.959 125.919C144.699 120.258 129.133 120.258 119.58 134.057C102.598 158.471 98.7068 197.745 125.241 222.158C127.364 223.927 129.133 226.404 130.548 228.527C131.609 229.589 132.317 231.004 133.378 232.065C140.1 239.495 140.808 247.987 135.855 257.186L135.501 257.894C129.84 268.155 123.826 278.769 117.104 288.676C105.783 304.598 101.183 322.643 102.952 343.518C105.075 371.824 117.811 391.992 141.515 405.437C174.417 423.835 198.475 446.126 215.103 473.724C220.41 482.569 226.778 494.245 229.608 508.044C232.439 522.905 224.655 533.519 216.872 542.011C202.013 558.994 182.555 571.024 165.219 581.993C163.45 583.054 161.327 584.469 159.205 585.531C148.591 591.9 137.27 598.622 130.194 609.237C121.349 621.974 120.642 630.82 126.656 641.434C132.67 651.695 144.699 656.295 157.789 652.757C166.28 650.634 174.064 648.157 181.139 645.326C194.937 640.019 209.089 639.311 225.009 642.85C243.406 647.096 265.695 652.049 287.983 656.295C324.423 663.017 341.052 680.355 348.481 718.567C351.665 734.843 352.373 751.826 353.08 768.102V770.225C354.142 796.761 363.34 818.344 380.676 836.389C402.611 859.033 429.499 874.955 453.202 888.4C464.877 895.123 474.076 904.676 480.798 917.767C491.411 937.935 502.379 958.457 516.884 976.855C517.592 977.917 517.592 979.686 516.53 980.393C516.53 984.639 515.823 984.639 515.469 984.639Z" fill="#005087"/>
<path d="M456.74 985.701C455.325 985.701 454.264 984.639 454.264 983.224C454.264 981.101 453.91 978.978 453.91 976.855C453.91 972.256 453.556 967.656 452.495 963.764C446.834 941.119 436.22 923.782 420.3 911.045L416.408 907.86C408.979 901.845 401.195 895.831 393.412 889.462C378.553 876.724 366.524 866.11 355.557 855.849C342.82 844.173 329.73 832.143 326.192 814.452C324.07 804.899 323.362 794.638 323.008 785.085C322.655 782.255 322.655 779.424 322.301 776.24C321.947 772.348 321.947 768.456 321.947 764.564C321.947 758.195 321.593 752.18 320.532 746.165C315.933 720.69 303.904 705.476 283.03 699.107C269.233 694.861 254.373 693.446 239.868 692.031C237.038 691.677 234.208 691.677 231.377 691.323C213.688 689.554 196.352 693.446 180.432 697.692C153.898 705.122 132.67 702.645 113.566 689.908C95.8765 677.878 86.3242 665.494 83.4939 649.572C81.3712 636.835 82.0788 623.39 86.3242 609.944C95.5227 580.577 110.736 562.886 134.439 554.749C148.591 549.795 159.558 542.719 167.695 533.519C177.602 522.197 181.847 509.106 180.078 496.368C177.248 475.847 166.28 458.864 148.945 446.834C135.855 437.988 122.057 429.85 108.967 421.713L106.136 419.943C92.3386 411.806 83.8477 400.837 80.6636 387.038C79.6023 382.439 78.5409 377.839 77.4795 372.885C76.0644 366.163 74.2954 359.086 72.5265 352.01C67.9273 336.442 61.5591 326.535 51.2992 319.812L47.0538 317.336C38.5629 311.675 29.7182 306.014 21.2273 299.645C16.2742 295.753 12.3826 290.092 10.2598 284.431C6.36817 274.17 10.6136 265.324 22.9962 257.894C30.4257 253.294 38.2091 249.756 45.6386 245.864L49.1765 244.095C56.2523 240.557 60.8515 235.603 62.6204 228.527C65.097 218.974 66.5121 211.898 67.9273 204.821C71.8189 180.408 75.7106 155.64 79.2485 134.411C81.0174 122.735 82.4326 107.521 75.7106 93.7218C74.2954 90.5375 72.8803 87.7069 71.4651 84.5226C62.9742 66.1239 53.7757 47.3715 48.1151 27.2038C44.2235 14.4663 35.025 4.55936 20.8735 -1.80939C6.01439 -8.17814 -8.49092 -14.9007 -23.35 -21.6233L-42.1008 -30.1149C-43.5159 -30.8226 -43.8697 -32.2379 -43.5159 -33.6531C-42.8083 -35.0684 -41.3932 -35.4222 -39.978 -35.0684L-21.2273 -26.5767C-6.36819 -19.8542 8.13711 -13.4854 22.9962 -6.76286C38.5629 -0.0402908 48.8227 11.2819 53.0682 25.4347C58.7288 45.2486 67.5735 63.6472 76.4182 81.692C77.8333 84.8764 79.2485 87.7069 80.6636 90.8913C87.7394 106.106 86.678 122.381 84.5553 134.765C81.3712 155.994 77.4795 180.761 73.2341 205.175C72.1727 212.251 70.4038 219.682 67.9273 229.235C65.8045 237.726 60.4977 243.741 51.653 247.987L48.1151 249.756C40.6856 253.294 32.9023 257.186 25.8265 261.432C15.2129 267.801 12.0288 273.816 15.2129 281.954C16.9818 286.553 20.5197 291.507 24.7651 294.691C32.9023 301.06 41.3932 306.721 49.8841 312.028L54.1295 314.505C65.4507 321.582 72.5265 332.55 77.4795 349.533C79.6023 356.61 81.0174 363.686 82.4326 370.409C83.4939 375.008 84.5553 379.608 85.6167 384.208C88.8008 396.591 96.2303 406.498 108.967 413.928L111.797 415.698C125.241 423.835 139.039 431.973 152.129 440.819C170.88 453.556 182.555 471.601 185.739 493.892C187.861 508.398 182.908 522.551 172.295 535.289C163.804 545.195 152.129 552.626 136.916 557.933C114.273 565.717 100.476 581.993 91.9848 609.944C88.0932 622.682 87.0318 635.419 89.1545 647.449C91.631 661.956 100.122 673.278 116.75 684.6C134.439 696.276 154.251 698.753 179.37 691.677C195.998 687.077 213.688 683.185 232.085 684.954C234.915 685.308 237.745 685.662 240.576 685.662C255.081 687.077 270.294 688.492 284.799 693.092C307.088 700.168 320.532 716.798 325.485 744.042C326.546 750.411 326.9 756.78 326.9 763.148C326.9 767.04 326.9 770.932 327.254 774.47C327.608 777.301 327.608 780.132 327.961 783.316C328.669 792.869 329.376 802.776 331.145 811.975C334.683 828.251 347.066 839.573 358.741 850.542C370.062 860.802 382.091 871.417 396.596 884.154C404.026 890.523 411.809 896.538 419.239 902.553L423.13 905.738C440.112 919.183 451.433 937.581 457.094 961.287C458.155 965.887 458.509 970.84 458.509 975.44C458.509 977.563 458.509 979.686 458.863 981.455C459.217 984.285 458.155 985.347 456.74 985.701Z" fill="#005087"/>
<path d="M607.454 984.639C606.746 984.639 606.039 984.285 605.685 983.932C604.623 982.87 604.977 981.101 606.039 980.393C613.822 973.671 619.483 964.825 623.728 954.564C629.035 941.473 627.973 930.151 620.544 919.89C613.114 909.629 603.208 902.199 590.826 894.769C585.519 891.585 580.566 888.4 575.259 885.57C568.891 881.678 562.523 878.14 556.155 873.894C535.989 861.156 535.989 848.773 538.819 830.02C539.88 822.59 542.003 815.514 544.126 808.437C545.187 805.607 545.895 802.776 546.602 799.945C554.386 772.701 567.476 754.657 587.642 743.334C599.67 736.612 612.053 728.474 625.851 718.213C647.432 702.291 673.258 684.246 702.269 671.155C716.067 664.786 724.911 664.079 736.233 675.755C750.03 689.908 766.305 701.937 786.117 712.552C793.9 716.798 801.33 721.751 808.405 726.705C815.127 731.304 822.203 736.258 829.279 740.15C852.275 752.534 875.625 763.856 897.206 774.47C923.033 786.5 955.935 804.191 982.823 831.435C988.837 837.45 996.974 842.404 1004.4 846.65L1007.94 848.773C1011.83 851.249 1015.72 853.372 1019.97 855.849C1034.48 864.341 1049.69 873.186 1062.78 884.862C1075.87 896.892 1090.73 900.43 1107 895.477C1128.23 889.108 1144.5 883.447 1159.36 877.786C1171.75 872.832 1184.48 867.171 1195.8 859.387C1210.66 848.773 1224.46 837.096 1237.2 824.005C1257.36 803.13 1282.48 803.13 1304.06 805.607C1313.26 806.668 1322.46 808.083 1331.3 809.852C1336.26 810.56 1341.56 811.622 1346.52 812.329C1351.47 813.037 1356.42 813.744 1361.73 814.452C1371.64 815.867 1381.9 817.283 1392.16 819.406C1396.75 820.467 1401.35 821.528 1405.95 822.59C1417.63 825.42 1430.01 828.605 1442.04 828.605C1443.45 828.605 1444.52 829.666 1444.52 831.082C1444.52 832.497 1443.45 833.558 1442.04 833.558C1429.3 833.204 1416.92 830.02 1404.89 827.189C1400.29 826.128 1395.69 825.067 1391.09 824.005C1381.19 821.882 1370.93 820.467 1361.38 819.406C1356.42 818.698 1351.12 817.99 1346.16 817.283C1341.21 816.575 1335.9 815.513 1330.95 814.806C1322.11 813.391 1312.91 811.975 1304.06 810.56C1282.48 808.083 1260.19 808.083 1241.44 827.189C1228.71 840.281 1214.55 852.311 1199.34 862.925C1187.67 871.063 1174.58 876.724 1161.84 882.032C1146.98 888.046 1130.71 893.354 1109.13 900.076C1091.44 905.384 1074.45 901.492 1059.95 888.4C1047.21 877.078 1032.35 868.233 1018.2 860.095C1014.31 857.618 1010.06 855.495 1006.17 853.018L1002.63 850.895C994.498 846.296 986.361 841.342 979.992 834.62C953.812 808.083 921.264 790.746 895.791 778.716C873.856 768.455 850.506 757.133 827.51 744.396C820.08 740.15 813.005 735.55 805.929 730.597C798.853 725.643 791.777 720.69 783.994 716.798C763.828 705.829 746.846 693.446 733.048 678.939C724.558 670.094 718.543 669.386 704.745 675.755C676.442 688.492 650.616 706.537 629.389 722.105C615.591 732.366 602.855 740.858 590.472 747.58C571.367 758.195 558.985 775.178 551.909 801.007C551.202 803.837 550.14 806.668 549.433 809.852C547.31 816.575 545.187 823.651 544.126 830.728C541.649 848.419 540.942 858.326 558.985 869.648C565.353 873.54 571.721 877.432 578.089 880.97C583.396 884.154 588.703 886.985 593.656 890.169C604.977 896.892 616.299 905.03 624.789 916.706C633.28 928.382 634.342 941.473 628.681 956.334C624.082 967.302 617.714 976.855 609.577 983.932C608.515 984.639 607.808 984.639 607.454 984.639Z" fill="#005087"/>
<path d="M647.432 984.639C647.078 984.639 646.724 984.639 646.37 984.285C644.955 983.578 644.601 982.162 644.955 981.101C646.37 977.209 648.139 973.671 649.555 969.779C653.092 961.641 656.63 953.149 659.461 944.658C665.829 923.428 661.583 907.86 646.37 897.246C641.064 893.354 635.757 889.816 630.45 886.277C624.789 882.739 619.129 878.847 613.822 874.955C604.623 868.233 595.071 861.156 586.226 853.372C574.551 842.758 573.844 828.251 574.198 814.452C574.551 790.746 583.396 773.409 600.732 761.379C604.977 758.195 609.223 755.364 613.468 752.18C628.681 741.211 644.248 730.243 660.168 719.982C681.042 706.537 702.976 705.476 721.373 717.152C739.063 728.12 757.106 741.565 776.564 758.195C795.669 774.117 810.882 783.316 827.864 788.623C841.308 792.869 854.398 797.115 867.842 801.361C878.809 804.899 889.777 808.437 900.744 811.622C921.617 817.99 936.83 828.251 948.152 843.111C960.18 859.033 973.978 870.356 990.252 877.432L993.083 878.493C1002.63 882.739 1012.19 886.985 1021.03 892.292C1034.48 900.784 1044.03 913.875 1053.23 925.905C1059.95 934.751 1067.73 938.996 1077.64 938.643C1087.19 938.289 1096.39 935.458 1107.71 929.09C1123.98 919.536 1142.73 908.922 1162.19 900.784C1179.53 893.354 1197.57 885.216 1212.78 873.186C1225.17 863.633 1235.07 855.849 1244.63 848.773C1260.55 836.743 1276.47 831.789 1292.39 833.558C1299.11 834.266 1306.54 835.681 1315.74 838.158C1334.84 843.111 1355.01 849.48 1370.93 863.987C1393.92 884.862 1417.27 898.661 1442.04 905.737C1443.45 906.091 1444.16 907.507 1443.81 908.922C1443.45 910.337 1442.04 911.045 1440.62 910.691C1415.15 903.261 1391.09 889.462 1367.39 867.879C1352.18 854.08 1333.07 848.065 1314.32 843.111C1305.12 840.635 1298.4 839.573 1291.68 838.866C1276.82 837.097 1262.67 841.696 1247.46 853.018C1237.9 860.095 1228 867.879 1215.62 877.432C1199.69 889.816 1181.3 898.307 1163.61 905.737C1144.5 913.875 1126.11 924.49 1109.83 934.043C1098.16 940.766 1087.9 943.95 1077.64 944.304C1065.96 944.658 1056.41 939.704 1048.98 929.797C1040.14 917.767 1030.94 905.384 1018.2 897.246C1009.71 891.939 1000.16 887.693 990.96 883.801L988.129 882.739C971.148 875.309 956.642 863.633 944.26 847.003C934 833.204 919.141 823.651 899.329 817.636C888.361 814.098 877.394 810.56 866.426 807.376C852.983 803.13 839.892 798.884 826.448 794.638C804.16 787.562 786.47 774.117 773.38 763.148C753.922 746.873 736.233 733.427 718.897 722.459C697.67 709.014 676.796 716.444 663.352 725.29C647.432 735.55 631.865 746.519 617.006 757.487C612.761 760.672 608.515 763.502 604.27 766.686C588.349 778.009 580.566 793.931 580.212 815.867C579.858 828.959 580.566 841.696 590.826 850.895C599.317 858.68 608.869 865.756 618.067 872.125C623.374 876.017 629.035 879.909 634.695 883.447C640.002 886.985 645.309 890.523 650.616 894.415C667.598 906.445 672.551 924.49 665.475 947.488C662.645 956.334 659.107 964.825 655.569 972.963C653.8 976.501 652.385 980.393 650.97 983.932C649.555 984.285 648.493 984.639 647.432 984.639Z" fill="#005087"/>
<path d="M414.993 988.177C412.163 988.177 410.04 985.701 410.04 982.87C410.394 957.041 400.488 936.166 379.968 919.183C372.185 912.814 365.109 905.737 358.033 899.015C352.019 893.354 346.005 887.693 339.636 882.032C333.976 877.078 327.254 872.478 320.886 868.233C318.763 866.817 316.286 865.048 314.164 863.633C301.781 855.141 294.352 842.404 290.106 824.005C288.337 815.867 286.568 807.376 285.153 799.238C283.384 790.392 281.615 781.193 279.492 772.348C273.478 747.226 260.388 733.427 238.453 729.182C224.655 726.705 210.504 727.766 192.461 732.72C188.215 734.135 183.616 735.197 179.37 736.612C174.064 738.381 168.403 740.15 162.742 741.565C147.53 745.457 134.439 743.688 122.411 735.904C105.075 724.582 87.0318 712.198 71.1114 695.923C61.2053 685.662 55.5447 673.278 53.7757 658.064C52.0068 643.203 54.1295 628.697 56.2523 614.898C56.9598 611.006 57.3136 607.114 58.0212 603.222C60.8515 581.993 62.2667 563.24 53.7757 545.195C46.3462 528.92 41.0394 511.936 36.0864 495.307C34.6712 490.707 33.2561 486.461 32.1947 481.862C30.4258 475.847 27.9492 469.478 25.8265 463.463C24.7651 460.633 23.7038 457.448 22.6424 454.618C18.397 442.234 19.4583 429.143 26.5341 414.99L28.6568 410.39C32.1947 402.96 36.0864 395.53 38.5629 388.1C44.5773 370.762 39.2705 354.487 24.7652 346.349C13.4439 339.98 1.06136 334.319 -10.9674 329.012L-18.0432 325.827C-23.7038 323.351 -29.7182 320.874 -35.3788 318.751C-37.8553 317.69 -40.6856 316.628 -43.1621 315.567C-45.6386 314.505 -47.0538 311.675 -45.9924 308.844C-44.9311 306.367 -42.1008 304.952 -39.2705 306.014C-36.7939 307.075 -34.3174 308.136 -31.4871 309.198C-25.8265 311.675 -19.4583 313.798 -13.7977 316.628L-6.72197 319.812C5.30681 325.474 17.6894 331.135 29.7182 337.503C48.8227 348.118 56.2523 369.347 48.4689 391.638C45.6386 399.776 41.747 407.56 37.8553 415.344L35.7326 419.943C30.072 431.619 29.0106 441.88 32.1947 451.787C33.2561 454.618 34.3174 457.802 35.3788 460.633C37.5015 466.648 39.978 473.016 41.747 479.385C43.1621 483.985 44.5773 488.23 45.9924 492.83C50.9454 509.106 55.8985 525.735 62.9742 541.303C72.5265 561.825 70.7576 583.054 68.2811 604.991C67.9273 608.883 67.2197 612.775 66.5121 616.667C64.3894 630.466 62.6205 643.557 64.0356 657.356C65.4508 670.448 70.05 680.354 78.5409 689.2C93.7538 704.768 111.443 717.152 128.071 728.12C137.623 734.489 148.237 735.904 160.266 732.366C165.573 730.951 171.233 729.182 176.54 727.412C181.139 725.997 185.385 724.582 189.984 723.52C209.442 718.213 225.363 716.798 240.576 719.628C266.402 724.582 283.03 741.565 289.752 770.225C291.875 779.424 293.644 788.623 295.413 797.823C296.828 805.96 298.597 814.098 300.366 822.236C303.904 838.158 310.272 848.772 320.532 855.495C322.655 856.91 324.777 858.326 326.9 860.095C333.622 864.694 340.344 869.294 346.712 874.601C353.08 880.262 359.448 885.924 365.463 891.939C372.539 898.661 379.614 905.384 387.044 911.399C409.686 930.151 421.008 954.211 420.654 982.87C420.3 985.701 417.824 988.177 414.993 988.177Z" fill="#005087"/>
<path d="M-1.41516 217.559C-14.1515 217.559 -26.1803 214.728 -37.8553 209.067C-39.2705 208.359 -39.978 207.652 -41.0394 206.59C-41.3932 206.236 -41.747 205.883 -42.1008 205.529C-43.1621 204.821 -43.5159 203.052 -42.4546 201.991C-41.3932 200.929 -39.978 200.575 -38.9167 201.637C-38.5629 201.991 -38.2091 202.344 -37.5015 202.698C-36.794 203.406 -36.0864 203.76 -35.3788 204.114C-23.7038 209.775 -12.0288 212.605 0.353775 212.251C20.1659 211.898 33.2561 203.76 41.0394 187.484C45.6386 177.577 49.1765 167.67 52.0068 157.409C58.375 133.703 56.2523 112.474 45.2848 93.3681C37.5015 79.5691 31.4871 65.0625 26.8879 52.6788C21.9348 39.9413 17.3356 28.6191 7.42953 20.1274C-1.41516 12.3434 -11.675 7.74377 -22.9962 2.79029C-27.2417 1.0212 -31.8409 -1.10173 -36.0864 -2.87083L-41.747 -5.34756C-43.1621 -6.0552 -43.5159 -7.47047 -43.1621 -8.53193C-42.4546 -9.94721 -41.0394 -10.301 -39.978 -9.94721L-34.3174 -7.47048C-30.072 -5.70138 -25.8265 -3.57847 -21.2273 -1.80937C-9.1985 3.1441 1.41514 8.09758 10.6136 16.2354C20.8735 25.4347 26.1803 37.4646 31.1333 50.5559C35.7326 62.5858 41.747 76.7386 49.1765 90.5375C60.4977 110.705 62.9742 133.35 56.2523 158.471C53.422 168.732 49.5303 179.346 44.931 189.253C36.4401 207.298 21.2273 216.497 -0.353802 216.851C-0.353802 217.559 -0.707588 217.559 -1.41516 217.559Z" fill="#005087"/>
<path d="M-2.47653 675.047C-8.13714 675.047 -13.7977 672.924 -19.1046 668.678C-30.072 660.187 -37.8553 650.634 -42.8084 639.665C-43.5159 638.25 -42.8084 636.835 -41.3932 636.127C-39.978 635.419 -38.5629 636.127 -37.8553 637.542C-33.2561 647.803 -25.8265 656.649 -15.5667 664.786C-10.2599 669.032 -4.95305 670.801 0.707558 669.74C7.07574 668.678 12.7364 664.079 18.0432 656.649C25.1189 646.034 27.5954 633.296 28.6568 621.974C31.1333 601.099 25.4727 583.054 12.3826 567.486C-1.06138 551.918 -5.30684 533.166 -9.55229 515.121C-14.1515 496.368 -23.35 483.631 -38.5629 475.847C-38.9167 475.847 -39.2705 475.493 -39.978 475.493C-40.3318 475.493 -40.6856 475.493 -41.0394 475.139C-42.4546 474.785 -43.1621 473.37 -42.8084 471.955C-42.4546 470.539 -41.0394 469.832 -39.6243 470.186C-39.2705 470.186 -38.9167 470.186 -38.9167 470.186C-38.2091 470.186 -37.1477 470.539 -36.4402 470.893C-19.8121 479.385 -9.55229 493.184 -4.59926 513.352C-0.353806 531.043 3.89165 549.087 16.2742 563.594C30.4257 580.224 36.4401 599.684 33.9636 621.974C32.5485 633.65 30.072 647.095 22.6424 658.771C16.628 667.617 9.55226 672.924 2.12271 674.34C-1.52588e-05 675.047 -1.41516 675.047 -2.47653 675.047Z" fill="#005087"/>
<path d="M-2.12275 185.007C-7.42957 185.007 -13.0902 183.946 -19.8121 182.177C-25.119 180.761 -30.4258 178.639 -35.3788 176.516C-37.5015 175.454 -39.9781 174.747 -42.1008 174.039C-43.5159 173.685 -44.2235 171.916 -43.5159 170.855C-43.1621 169.439 -41.3932 168.732 -40.3318 169.439C-37.8553 170.147 -35.7326 171.208 -33.2561 172.27C-28.3031 174.039 -23.35 176.162 -18.0432 177.577C8.49089 185.007 18.0432 174.747 24.4113 162.363C32.1947 147.502 32.5485 131.227 25.8265 116.013L22.6424 108.582C14.8591 91.2452 7.07573 73.2003 0.70755 54.8017C-2.12275 45.6024 -6.72199 38.5261 -13.0902 32.8649C-20.8735 26.1424 -30.072 20.8351 -41.747 17.2969C-43.1621 16.9431 -43.8697 15.5278 -43.5159 14.1125C-43.1621 12.6972 -41.747 11.9896 -40.3318 12.3434C-27.9493 16.2354 -17.6894 21.8965 -9.5523 28.9729C-2.47654 35.3417 2.47649 43.1257 6.01437 53.0326C12.0288 71.0774 19.8121 89.1222 27.5954 106.106L30.7795 113.536C38.2091 130.165 37.5015 148.21 29.3644 164.486C21.9348 178.285 12.0288 185.007 -2.12275 185.007Z" fill="#005087"/>
<path d="M678.565 519.013C670.074 519.013 662.291 517.598 654.861 514.413C631.865 504.86 612.053 488.938 593.656 465.586C580.212 448.249 574.905 427.374 570.306 405.791C567.122 391.638 569.245 378.547 575.613 367.578C584.811 352.364 600.378 331.489 627.62 324.766C627.973 324.766 628.327 324.766 628.681 324.766C628.681 324.766 628.681 324.766 629.035 324.766C642.833 324.058 654.861 328.658 663.706 332.904C673.612 337.503 683.518 342.811 693.07 347.764C712.529 357.671 732.341 367.932 753.214 375.716C762.767 379.254 771.965 383.5 780.81 387.746C785.763 390.223 791.07 392.699 796.377 394.822C808.052 399.776 820.434 401.545 834.232 399.422C845.907 397.653 857.936 398.36 869.611 398.714C872.087 398.714 874.21 399.068 876.686 399.068H879.163C894.022 399.422 908.881 400.13 923.74 402.252C945.321 405.083 956.642 417.467 954.873 435.865C953.812 447.895 946.383 456.033 940.014 462.048C930.462 471.247 918.787 476.554 908.881 480.8C884.823 491.415 863.242 491.061 842.723 480.093C836.355 476.554 829.986 473.016 823.618 469.832L814.42 464.525C804.16 458.863 794.254 459.571 784.702 466.648C780.456 469.832 774.442 474.078 769.489 479.031C750.738 496.722 728.449 508.752 703.684 515.121C694.486 517.951 685.995 519.013 678.565 519.013ZM628.681 330.073C609.223 335.027 594.01 347.41 580.212 370.409C574.198 380.316 572.429 391.638 575.259 404.729C579.858 425.604 584.811 445.772 597.548 462.402C615.237 485.046 634.695 500.614 656.63 509.813C669.367 515.121 683.872 515.121 702.269 510.521C726.326 504.506 747.554 492.476 765.951 475.493C771.258 470.54 777.272 465.94 781.871 462.755C793.192 454.264 805.221 453.556 817.25 460.279L826.449 465.586C832.817 469.124 839.185 472.662 845.199 475.847C863.95 486.108 884.116 486.108 906.758 476.554C916.311 472.309 927.632 467.001 936.477 458.51C942.491 452.849 948.859 445.772 949.567 435.511C951.336 415.698 936.123 409.329 922.679 407.206C908.173 405.083 892.961 404.729 878.455 404.022H875.979C873.502 404.022 871.38 403.668 868.903 403.668C857.582 403.314 845.553 402.606 834.232 404.375C819.373 406.498 806.283 404.729 793.546 399.422C788.239 397.299 782.933 394.822 777.98 392.345C769.135 388.1 759.936 383.854 750.738 380.669C729.511 372.885 709.698 362.625 690.24 352.718C680.688 347.764 670.782 342.811 660.876 338.211C648.139 332.196 638.587 329.719 628.681 330.427C629.035 330.073 628.681 330.073 628.681 330.073Z" fill="#005087"/>
<path d="M678.565 493.892C674.32 493.892 670.428 493.538 666.183 492.476C637.172 485.4 603.562 448.603 605.331 413.575C606.746 387.392 614.176 376.777 636.464 369.701C636.818 369.701 637.172 369.701 637.526 369.701C638.233 369.701 638.941 369.701 640.002 369.701C641.771 369.701 643.54 369.347 645.309 370.055C677.857 376.777 704.745 388.453 726.68 405.437C741.893 417.467 746.492 431.973 740.124 450.726C735.171 465.586 724.911 476.554 707.929 486.461C697.67 491.061 688.117 493.892 678.565 493.892ZM637.526 374.654C617.714 381.023 611.699 389.869 610.284 413.928C608.515 446.48 640.002 480.8 667.244 487.523C679.626 490.353 692.009 488.584 704.745 481.508C720.666 472.662 730.218 462.048 734.817 448.603C740.478 432.327 736.586 419.59 723.142 408.975C701.915 392.345 676.089 381.377 643.894 374.654C642.833 374.301 641.417 374.654 640.002 374.654C639.295 374.654 638.233 374.654 637.526 374.654Z" fill="#005087"/>
<path d="M383.506 493.538C382.445 493.538 381.737 493.538 380.676 493.184C367.232 491.061 355.557 486.108 344.589 478.677C332.207 470.186 325.839 455.679 327.961 441.173C329.73 427.727 338.929 416.405 351.311 412.513C351.665 412.513 352.019 412.513 352.373 412.513C352.373 412.513 352.373 412.513 352.726 412.513C358.741 412.159 365.463 412.159 370.77 417.113C375.015 421.005 379.968 425.604 383.86 430.912C394.12 446.126 397.304 463.817 393.766 485.4C393.412 488.231 391.997 490.354 390.228 491.769C388.459 492.83 385.983 493.538 383.506 493.538ZM352.373 417.82C341.759 421.359 334.683 430.558 332.914 442.234C331.145 454.972 336.452 467.709 347.42 474.785C357.68 481.862 368.647 486.108 381.383 488.231C383.86 488.584 385.629 488.231 387.044 487.523C388.105 486.815 388.459 485.754 388.813 484.692C391.997 464.525 389.167 448.249 379.614 433.742C376.43 428.789 371.477 424.543 367.586 421.005C363.694 417.467 358.741 417.467 353.08 417.82C352.727 417.82 352.726 417.82 352.373 417.82Z" fill="#005087"/>
<path d="M1215.97 468.417C1212.78 468.417 1206.06 468.417 1204.65 461.694C1203.94 457.802 1205 453.202 1207.48 450.372C1209.25 447.895 1212.08 446.48 1214.55 444.711C1215.62 444.003 1216.68 443.649 1217.38 442.942C1218.09 442.588 1218.45 442.588 1219.15 442.588C1219.15 442.588 1219.15 442.588 1219.51 442.588C1228 442.588 1231.54 445.418 1232.95 447.895C1234.01 449.664 1235.07 452.849 1232.95 457.448C1229.41 464.525 1223.4 468.417 1215.97 468.417ZM1219.51 447.541C1218.8 448.249 1217.74 448.603 1217.03 448.957C1214.91 450.372 1212.78 451.433 1211.37 453.202C1209.95 454.971 1209.25 458.156 1209.6 460.633C1209.95 462.402 1211.02 463.109 1215.62 463.109C1221.28 463.109 1225.52 460.279 1228 454.971C1229.06 453.202 1229.06 451.433 1228.35 450.372C1227.64 448.603 1224.11 447.541 1219.51 447.541Z" fill="#005087"/>
<path d="M427.73 549.795C415.701 549.795 406.148 544.488 399.073 533.519C395.889 528.566 394.827 522.551 394.12 516.536C393.766 515.121 393.766 513.706 393.412 511.936C392.351 505.214 392.705 500.614 395.181 497.784C398.011 494.245 402.964 493.892 407.564 493.892C417.823 493.892 428.791 493.538 439.051 492.83C442.235 492.83 445.065 492.476 448.249 492.476C449.311 492.476 450.372 492.123 451.787 491.769C452.495 491.415 453.202 491.415 453.91 491.061C454.264 491.061 454.617 491.061 454.971 491.061C455.325 491.061 455.325 491.061 455.679 491.061C457.094 491.061 458.509 491.415 459.924 491.415C462.755 491.769 465.585 492.123 468.415 492.476C477.967 493.184 481.859 497.43 483.628 500.614C486.105 505.568 485.397 512.29 481.505 518.659C472.307 533.873 458.863 543.426 441.173 547.672C436.22 549.441 431.975 549.795 427.73 549.795ZM407.21 499.199C402.611 499.199 400.488 499.907 399.073 501.322C397.658 503.091 397.304 506.275 398.365 511.229C398.719 512.644 398.719 514.413 399.073 515.828C399.78 521.136 400.842 526.797 403.318 531.043C411.455 543.78 422.777 547.318 439.405 543.426C455.679 539.534 468.061 530.335 476.552 516.536C479.383 511.583 480.09 506.983 478.321 503.445C476.552 500.26 473.014 498.491 467.354 498.137C464.524 497.784 461.693 497.43 458.863 497.076C457.448 497.076 456.033 496.722 454.971 496.722C454.617 496.722 453.91 497.076 453.556 497.076C452.141 497.43 450.726 498.137 448.957 498.137C445.773 498.137 442.942 498.491 439.758 498.491C429.498 498.845 418.531 499.553 407.917 499.553C407.564 499.199 407.21 499.199 407.21 499.199Z" fill="#005087"/>
<path d="M1098.16 549.441C1096.39 549.441 1094.97 549.088 1093.56 548.734C1090.73 547.672 1086.13 544.842 1088.25 534.935C1090.02 526.797 1095.68 521.136 1105.23 518.305C1105.59 518.305 1105.94 518.305 1106.29 518.305C1106.65 518.305 1106.65 518.305 1107 518.305C1110.89 519.013 1115.49 520.074 1117.26 523.613C1119.03 526.797 1117.62 531.043 1116.2 533.519C1114.43 537.411 1111.25 543.073 1106.65 546.965C1104.53 548.734 1101.34 549.441 1098.16 549.441ZM1106.65 523.259C1098.87 525.735 1094.62 529.981 1093.2 535.996C1092.14 540.596 1092.85 543.073 1095.33 543.78C1097.8 544.488 1102.05 544.134 1103.82 542.719C1107.71 539.534 1110.54 534.581 1111.96 531.043C1113.02 528.212 1113.72 526.443 1113.02 525.382C1112.31 524.674 1110.19 523.612 1106.65 523.259Z" fill="#005087"/>
<path d="M465.231 863.987C460.632 863.987 455.325 863.279 449.664 862.218C423.13 856.91 405.087 838.866 392.705 823.651C383.152 811.975 377.492 800.653 376.077 788.977C373.954 773.055 372.185 757.133 370.77 741.565C370.062 734.489 369.355 727.059 368.647 719.982C367.939 714.675 367.586 709.722 367.232 704.414C366.17 692.031 364.755 678.939 362.633 666.556C359.448 648.157 350.25 638.25 334.683 636.835C332.207 636.481 330.084 636.127 327.608 635.419C326.546 635.066 325.131 634.712 324.07 634.712L323.008 634.358C309.564 631.881 295.767 629.051 284.092 619.851C276.308 613.836 273.832 602.868 278.431 595.084C282.676 588.008 287.63 579.516 294.705 573.855C310.272 560.764 325.131 560.41 339.99 573.147C348.835 580.577 356.264 589.423 364.048 599.33C370.77 607.822 378.907 610.652 388.813 607.821C400.134 604.637 411.809 600.745 424.899 596.145L425.961 595.792C451.433 586.239 477.967 576.685 502.733 563.948C510.87 559.702 519.714 556.164 528.559 552.626C532.451 551.21 536.342 549.441 540.234 548.026C540.588 547.672 541.296 547.672 541.649 548.026C541.649 548.026 541.649 548.026 542.003 548.026C557.57 546.965 571.367 549.795 583.396 556.518C587.995 558.994 592.241 561.825 596.486 564.656C598.609 566.071 600.732 567.132 602.855 568.548C608.161 571.732 613.114 574.916 618.421 578.101C629.742 584.823 641.417 591.9 652.739 599.33C666.183 608.175 674.674 620.913 675.735 634.004C676.796 646.742 671.136 659.125 659.814 669.386C652.385 676.109 644.955 683.185 637.526 690.261C620.19 707.245 601.086 720.69 581.274 730.597C557.216 742.627 540.588 760.672 531.036 786.5C523.252 807.729 512.639 827.19 499.548 844.881C487.873 859.033 477.967 863.987 465.231 863.987ZM317.702 568.901C311.333 568.901 304.611 571.732 297.536 577.747C291.167 583.054 286.568 590.838 282.323 597.915C279.139 603.576 280.908 611.36 286.922 615.959C297.536 624.451 310.272 626.928 323.362 629.405L324.423 629.758C325.839 630.112 326.9 630.466 328.315 630.82C330.438 631.174 332.561 631.881 334.683 632.235C352.726 634.004 363.694 645.68 367.232 666.202C369.355 678.939 370.77 691.677 371.831 704.414C372.185 709.722 372.892 714.675 373.246 719.628C373.954 726.705 374.661 734.135 375.369 741.211C376.784 756.78 378.553 772.701 380.676 788.623C382.091 799.238 387.044 809.852 396.242 820.821C408.271 835.327 425.607 852.665 450.372 857.618C469.83 861.51 480.798 860.095 494.595 841.696C507.332 824.359 517.592 805.253 525.375 784.377C535.281 757.487 552.617 738.381 578.089 725.643C597.548 716.09 616.299 702.645 633.28 686.369C640.71 679.293 648.139 672.217 655.569 665.494C665.829 656.295 670.782 645.68 669.72 634.358C668.659 622.682 661.23 611.36 649.201 603.576C637.88 596.145 626.558 589.423 615.237 582.7C609.93 579.516 604.977 576.332 599.67 573.147C597.548 571.732 595.425 570.67 593.302 569.255C589.057 566.425 584.811 563.948 580.212 561.471C568.891 555.102 556.155 552.626 541.649 553.687H541.295C537.758 555.102 533.866 556.871 529.974 558.287C521.483 561.471 512.992 565.009 504.855 569.255C479.736 581.993 453.202 591.9 427.376 601.453L426.314 601.807C413.224 606.76 401.195 610.652 389.874 613.836C377.845 617.021 367.939 613.483 359.802 603.576C352.019 594.023 344.943 585.177 336.452 578.101C330.084 571.732 323.716 568.901 317.702 568.901Z" fill="#005087"/>
<path d="M1136.72 855.849C1130.71 855.849 1124.69 855.495 1118.32 854.788C1101.7 852.665 1086.84 845.234 1070.92 830.728C1057.83 819.052 1043.67 811.975 1027.05 809.499C1010.77 807.022 997.328 802.068 985.653 793.931C977.162 787.916 967.964 781.901 959.119 776.593L953.812 773.409C935.769 762.087 914.542 748.996 891.192 741.212C856.167 729.182 827.864 707.245 807.344 676.109C797.438 660.894 799.207 644.973 811.589 633.65C815.481 629.758 819.727 625.866 823.618 621.974C830.34 615.605 837.062 608.883 844.492 602.514L846.614 600.745C855.813 592.607 865.011 584.469 875.625 577.747C893.314 566.778 912.773 564.302 931.17 570.67C947.09 576.332 961.949 585.531 976.455 598.622C986.714 608.175 994.852 619.498 1002.28 630.466C1005.82 635.773 1009.71 641.081 1013.6 646.388C1024.57 660.541 1036.6 677.524 1042.97 698.399C1046.86 711.137 1053.58 722.105 1062.78 729.889C1069.85 736.258 1076.93 742.627 1083.65 748.996C1090.73 755.718 1098.16 762.441 1105.23 769.163C1113.37 776.24 1122.57 779.778 1132.83 779.778H1133.18C1152.99 779.424 1171.04 772.701 1187.67 765.625C1194.74 762.441 1199.34 756.78 1201.11 748.996C1204.65 732.366 1202.17 718.567 1193.33 707.599C1185.9 698.399 1177.05 690.261 1168.56 682.477C1152.64 667.971 1147.33 649.218 1153.35 626.574C1160.07 600.745 1171.04 573.147 1204.65 564.655C1205 564.655 1205.36 564.655 1205.71 564.655H1206.06H1213.49C1232.6 564.655 1242.15 571.732 1247.81 589.423C1250.64 597.915 1252.41 606.76 1254.53 615.606C1259.48 638.25 1271.16 653.11 1289.56 660.541C1293.09 661.956 1296.99 663.371 1300.88 664.786C1304.06 665.848 1307.25 666.909 1310.08 667.971C1325.64 673.986 1335.9 684.954 1341.21 700.876C1345.1 713.26 1348.99 726.705 1349.7 740.858C1350.76 758.902 1345.81 767.04 1329.53 773.763C1319.98 778.009 1309.72 778.716 1300.17 779.778C1297.69 780.132 1294.86 780.132 1292.39 780.486C1285.67 781.193 1278.59 781.547 1272.22 781.901C1265.15 782.255 1258.07 782.608 1250.99 783.67C1238.61 785.085 1229.06 790.392 1223.04 799.592C1221.28 802.422 1219.51 805.253 1217.74 808.083C1215.26 812.329 1212.43 816.575 1209.6 820.467C1192.27 844.173 1168.56 855.849 1136.72 855.849ZM910.65 571.732C899.683 571.732 889.069 574.916 878.455 581.639C868.549 588.008 859.351 596.145 850.152 603.929L848.03 605.699C840.954 612.067 834.232 618.436 827.51 625.159C823.618 629.051 819.373 632.943 815.481 636.835C804.867 646.742 803.806 659.833 812.297 672.924C832.109 703.353 858.643 724.228 893.314 735.904C917.018 744.042 938.599 757.133 956.996 768.809L962.303 771.994C971.148 777.655 980.346 783.316 989.191 789.685C1000.16 797.469 1012.89 802.068 1028.11 804.545C1045.8 807.022 1061.01 814.452 1074.81 826.836C1090.02 840.635 1104.17 847.711 1119.38 849.834C1159.01 854.788 1186.25 844.173 1206.06 816.929C1208.89 813.037 1211.37 808.791 1213.85 804.899C1215.62 802.068 1217.38 799.238 1219.15 796.407C1225.88 786.147 1236.49 780.132 1250.64 778.363C1257.72 777.655 1265.15 776.947 1272.22 776.593C1278.94 776.24 1285.67 775.886 1292.39 775.178C1294.86 774.824 1297.69 774.471 1300.17 774.471C1310.08 773.409 1319.28 772.701 1328.12 768.809C1342.63 762.794 1346.16 756.78 1345.46 740.858C1344.75 727.413 1340.86 714.321 1336.96 702.291C1332.37 688.139 1322.81 678.232 1309.02 672.57C1305.83 671.509 1303 670.448 1299.82 669.386C1295.93 667.971 1292.03 666.556 1288.14 665.14C1267.98 657.002 1255.59 641.081 1250.29 616.667C1248.16 607.821 1246.39 599.33 1243.56 590.838C1238.61 574.916 1231.18 569.609 1214.2 569.609H1206.42H1206.06C1175.28 577.747 1165.02 602.514 1158.66 627.989C1153.35 648.865 1157.95 665.848 1172.45 678.939C1180.94 686.723 1190.14 694.861 1197.93 704.414C1207.83 716.798 1211.02 732.012 1206.77 750.057C1204.65 759.256 1198.99 766.687 1190.5 770.225C1173.16 777.655 1154.41 784.377 1133.89 784.731C1122.22 784.731 1111.6 780.839 1102.4 772.701C1094.97 765.979 1087.54 759.256 1080.47 752.534C1073.75 746.165 1066.67 739.796 1059.95 733.427C1050.04 724.582 1042.97 713.26 1038.72 699.461C1032.35 679.293 1020.68 662.664 1010.06 649.218C1005.82 643.911 1002.28 638.604 998.389 633.297C990.96 622.328 983.177 611.36 973.271 602.16C959.119 589.423 944.967 580.577 929.755 575.27C923.033 572.793 916.664 571.732 910.65 571.732Z" fill="#005087"/>
<path d="M452.848 820.821C446.834 820.821 440.82 819.052 435.513 815.16C429.498 810.914 423.484 805.253 418.531 798.53C400.488 774.117 397.658 744.75 395.181 716.444V715.029C394.12 704.06 395.181 692.384 396.242 681.416V679.647C398.011 660.894 405.087 644.973 416.762 632.235C428.791 619.144 444.358 609.237 466.646 600.745C483.628 594.376 500.964 588.361 517.592 582.7C525.021 580.224 532.097 577.747 539.527 575.27C539.88 575.27 540.234 575.27 540.588 575.27H540.942C543.064 575.27 545.187 575.27 547.31 575.27C554.739 575.27 562.523 575.27 569.952 578.455C591.533 587.3 606.746 602.868 617.714 615.606C628.681 628.343 630.096 642.142 621.959 657.71C609.223 682.477 590.472 701.23 564.645 716.09C549.433 724.582 534.22 733.427 523.96 747.934C516.53 758.549 509.808 768.809 504.148 779.07C496.364 792.161 486.458 806.668 470.538 816.221C464.523 818.698 458.509 820.821 452.848 820.821ZM540.942 579.516C533.866 581.993 526.79 584.469 519.361 586.946C502.733 592.607 485.397 598.622 468.769 604.991C446.834 613.483 431.975 622.682 420.654 635.419C409.333 647.449 403.318 662.31 401.549 680.001V681.77C400.488 692.384 399.427 703.707 400.488 714.321V715.736C402.964 743.334 405.441 771.994 422.777 795.346C427.376 801.715 433.036 807.022 438.343 810.914C447.542 817.283 457.802 817.283 468.061 810.914C482.92 801.715 492.473 787.916 499.902 775.532C505.917 765.271 512.639 754.657 520.068 744.042C530.682 728.474 546.956 719.275 562.523 710.783C587.642 696.63 605.685 678.232 618.067 654.526C625.143 640.727 624.082 629.051 614.53 618.082C598.963 600.037 584.811 589.069 568.891 582.347C562.169 579.516 555.447 579.516 548.017 579.516C545.541 579.516 543.418 579.516 540.942 579.516C541.295 579.516 540.942 579.516 540.942 579.516Z" fill="#005087"/>
<path d="M962.657 716.09C962.303 716.09 961.949 716.09 961.595 716.09C953.104 715.736 944.967 715.029 936.83 714.675C930.816 714.321 924.802 713.613 918.787 713.26C905.343 712.552 892.607 709.722 880.932 704.768C869.257 699.815 860.058 691.323 854.044 679.647C848.737 669.74 847.322 660.187 849.445 650.634C856.874 619.851 873.148 600.391 899.329 590.838C899.683 590.838 900.036 590.484 900.39 590.838C900.39 590.838 900.39 590.838 900.744 590.838C911.711 590.484 923.74 590.838 934.708 597.207C957.35 610.298 973.978 629.758 983.884 655.587C987.776 665.14 990.96 675.401 990.96 687.077C990.606 696.63 987.776 704.06 982.469 709.368C977.516 713.614 970.44 716.09 962.657 716.09ZM900.39 595.792C875.979 604.637 860.766 623.036 854.044 651.695C851.921 660.187 853.336 668.325 857.936 677.17C863.596 687.431 871.733 695.569 882.347 699.815C893.314 704.414 905.697 707.245 918.433 707.952C924.448 708.306 930.816 708.66 936.83 709.368C944.967 710.075 953.104 710.783 961.595 710.783C969.025 711.137 974.686 709.014 978.931 705.122C983.177 700.876 985.653 694.507 986.007 686.723C986.361 676.109 983.176 666.202 979.285 657.356C969.379 632.235 954.166 613.836 932.231 601.453C922.325 595.792 911.358 595.438 901.098 595.792C900.39 595.792 900.39 595.792 900.39 595.792Z" fill="#005087"/>
<path d="M469.477 748.288C464.17 748.288 458.863 746.519 453.556 742.981C428.791 725.997 419.946 689.908 433.39 660.541C445.773 633.65 468.415 618.436 504.855 611.714C510.162 610.652 515.469 610.298 520.776 609.591C523.252 609.237 525.729 608.883 528.205 608.883C528.559 608.883 528.559 608.883 528.913 608.883C529.267 608.883 529.267 608.883 529.62 608.883C530.682 608.883 531.743 609.237 532.805 609.237C535.281 609.591 537.404 609.945 539.88 610.298C551.202 611.36 560.046 615.959 566.061 623.743C573.136 632.943 576.32 646.388 574.551 659.479C572.429 673.278 565.707 684.954 555.093 692.738C549.786 696.63 544.48 700.168 539.173 704.06C533.512 708.306 527.498 712.198 521.837 716.444C517.238 719.982 512.639 723.167 508.039 726.705C500.61 732.012 493.18 737.673 485.397 742.981C480.444 746.519 475.137 748.288 469.477 748.288ZM528.913 613.837C526.436 614.19 523.96 614.544 521.483 614.898C516.53 615.606 511.223 615.959 505.917 617.021C471.245 623.39 449.664 637.896 437.989 663.017C425.607 690.261 433.39 723.874 456.386 739.089C465.231 745.103 473.722 745.103 482.567 739.089C489.996 733.781 497.78 728.12 505.209 722.813C509.808 719.275 514.408 716.09 519.007 712.552C524.667 708.306 530.682 704.06 536.342 700.168C541.649 696.276 546.956 692.738 552.263 688.846C561.815 682.124 567.83 671.509 569.598 659.125C571.367 647.096 568.537 635.419 562.169 627.282C556.862 620.205 549.433 616.667 539.527 615.606C537.05 615.252 534.573 614.898 532.097 614.544C531.389 613.837 530.328 613.837 528.913 613.837Z" fill="#005087"/>
<path d="M1212.43 654.88C1210.31 654.88 1208.54 654.172 1206.42 653.11C1202.53 650.634 1197.93 647.803 1194.74 643.557C1191.2 638.958 1190.14 632.589 1191.56 626.22C1193.33 619.851 1197.57 614.19 1202.88 611.714C1203.23 611.36 1203.94 611.36 1204.29 611.36C1204.65 611.36 1205 611.36 1205.71 611.36C1206.42 611.714 1206.77 611.714 1207.48 612.067C1209.25 612.421 1211.02 613.129 1212.43 614.19C1222.69 623.39 1223.04 635.419 1221.98 646.034C1221.63 649.572 1219.86 652.049 1217.03 653.818C1215.62 654.526 1213.85 654.88 1212.43 654.88ZM1204.65 616.667C1200.76 618.79 1197.93 622.682 1196.51 627.635C1195.45 632.589 1196.16 637.189 1198.63 640.727C1201.11 644.265 1205.36 646.742 1208.89 648.865C1210.66 649.926 1212.79 650.28 1214.2 649.218C1215.62 648.511 1216.32 647.096 1216.68 645.68C1217.74 636.481 1217.38 625.866 1208.89 618.082C1208.19 617.728 1207.12 617.375 1206.06 617.021C1205.71 617.021 1205 617.021 1204.65 616.667Z" fill="#005087"/>
<path d="M915.249 670.801C912.065 670.801 908.881 670.094 906.051 669.032C900.39 666.556 893.314 661.956 893.314 651.341C893.314 643.557 895.083 632.589 907.82 628.343C908.174 628.343 908.527 628.343 908.881 628.343H909.235H909.943H912.773C925.509 628.343 936.83 638.958 937.538 651.341C937.892 657.356 934.708 662.664 929.047 666.909C925.155 669.386 920.202 670.801 915.249 670.801ZM909.235 632.943C901.805 635.773 898.621 641.081 898.621 651.341C898.621 657.356 901.452 661.248 908.527 664.433C914.188 666.909 921.264 666.202 926.924 662.31C931.17 659.479 933.646 655.233 933.292 651.341C932.585 641.434 923.74 632.943 913.48 632.943H909.235Z" fill="#005087"/>
<path d="M1272.22 740.504C1266.56 740.504 1261.61 738.735 1258.07 735.904C1250.64 729.535 1246.75 721.044 1246.75 710.075C1246.75 699.461 1249.22 695.569 1259.48 692.03C1259.84 692.03 1260.19 692.03 1260.55 692.03H1260.9C1269.04 692.03 1276.82 694.153 1283.9 699.107C1294.51 706.183 1299.11 718.213 1295.22 727.412C1292.74 733.427 1286.73 738.027 1278.94 739.796C1276.82 740.15 1274.34 740.504 1272.22 740.504ZM1260.9 696.984C1253.12 699.815 1251.7 701.584 1251.7 710.075C1251.7 719.275 1254.89 726.705 1261.25 732.012C1265.15 735.197 1271.51 736.258 1277.88 734.843C1283.9 733.427 1288.85 729.889 1290.62 725.643C1293.45 718.567 1289.56 709.368 1281.07 703.353C1275.05 698.753 1268.33 696.63 1260.9 696.984C1261.25 696.984 1260.9 696.984 1260.9 696.984Z" fill="#005087"/>
<path d="M253.312 182.884C238.807 182.884 226.778 174.039 222.533 159.886C217.933 145.026 217.933 131.227 222.533 117.428C223.24 114.951 224.301 112.828 225.009 110.351C227.486 103.983 229.608 97.6139 231.023 91.2451C233.146 80.6306 233.5 72.1389 232.439 64.7087C231.023 53.7403 223.24 47.0177 208.381 43.1257C202.72 41.7104 197.06 40.649 191.045 39.5875C188.923 39.2337 186.446 38.8799 184.323 38.526C168.757 35.6955 159.912 27.2038 158.143 12.6972C157.082 4.9132 157.436 -3.22466 158.143 -10.6549C159.912 -38.6066 169.111 -63.7278 185.031 -86.0184C193.876 -98.4021 203.074 -109.724 218.995 -113.97C219.702 -113.97 220.056 -114.324 220.764 -113.97C234.208 -115.739 245.175 -109.37 254.373 -103.356C283.384 -84.6031 316.286 -66.9122 354.849 -48.8674C384.214 -35.0684 408.271 -23.3924 430.206 -5.34758C448.603 9.86665 456.74 26.85 454.971 46.6639C454.617 51.2635 453.91 55.8632 453.556 60.4628C453.202 64.3549 452.495 67.8931 452.141 71.7851C451.787 75.6771 451.433 79.5691 451.08 83.4611C450.372 90.5375 450.018 97.9677 448.957 105.398C446.834 118.843 440.82 127.689 430.206 132.996C423.13 136.534 415.701 137.242 408.625 138.303C405.795 138.657 403.318 139.011 400.488 139.365C397.304 140.072 393.766 140.426 390.582 140.78C384.214 141.487 378.553 142.195 373.246 143.964C364.048 147.502 354.495 152.102 345.651 156.702C339.99 159.532 333.976 162.363 327.961 165.193C303.196 176.516 279.139 182.177 254.727 182.884C254.02 182.884 253.666 182.884 253.312 182.884ZM220.764 -103.709C208.381 -100.171 200.951 -90.9719 193.168 -80.0035C178.309 -59.4819 169.818 -35.7761 168.049 -9.94724C167.695 -2.87084 167.342 4.55937 168.049 11.2819C169.464 21.5427 174.771 26.4962 186.092 28.6191C188.215 28.9729 190.338 29.3267 192.461 29.6806C198.475 30.742 204.843 31.8035 210.858 33.2188C229.962 38.1722 240.222 48.0792 242.345 63.2934C243.406 71.7851 243.052 81.3382 240.93 93.0142C239.514 100.091 237.038 107.167 234.561 113.536C233.854 115.659 232.792 118.135 232.085 120.258C228.193 131.934 227.839 143.61 232.085 156.348C234.561 163.778 241.283 172.27 253.312 172.27C253.666 172.27 253.666 172.27 254.02 172.27C277.016 171.562 299.658 166.255 323.362 155.64C329.023 153.164 335.037 150.333 340.698 147.502C349.896 142.903 359.448 138.303 369.001 134.411C375.369 131.934 382.091 131.227 388.813 130.519C391.997 130.165 395.181 129.811 398.011 129.458C400.842 129.104 403.672 128.75 406.502 128.396C412.87 127.689 419.239 126.981 424.899 124.15C432.329 120.258 436.574 113.89 438.343 103.983C439.405 97.2601 440.112 89.8298 440.466 83.1073C440.82 79.2153 441.173 74.9695 441.527 71.0774C441.881 67.1854 442.235 63.2934 442.942 59.4014C443.65 54.8017 444.004 50.2021 444.358 45.9562C445.773 29.3267 439.051 15.8816 423.13 2.79028C401.903 -14.5469 378.553 -26.2229 349.896 -39.6681C310.98 -58.0667 277.723 -76.1115 248.359 -94.8639C239.868 -100.171 231.377 -105.125 221.471 -103.709C221.117 -103.709 220.764 -103.709 220.764 -103.709Z" fill="#005087"/>
<path d="M319.47 111.413C316.64 111.413 314.164 110.705 312.041 109.644C307.442 107.167 304.258 102.214 302.842 95.1371C300.72 85.584 299.305 76.7385 298.243 68.2469C296.12 47.7253 288.691 28.9729 275.601 11.6358C273.832 9.15902 272.063 6.68227 269.94 4.20554C264.28 -2.87085 258.619 -10.3011 254.02 -18.4389C248.005 -29.4073 249.774 -36.8375 260.034 -43.2063C262.864 -44.9754 265.695 -45.683 268.879 -46.3906C269.94 -46.7445 271.355 -47.0983 272.417 -47.4521C272.77 -47.4521 273.124 -47.4521 273.478 -47.4521C273.832 -47.4521 274.186 -47.4521 274.186 -47.4521C276.662 -47.0983 279.492 -46.7445 281.969 -46.3906C287.983 -45.683 293.998 -44.6215 299.658 -42.8524C315.579 -37.5451 331.145 -31.884 346.005 -25.8691C362.279 -19.1465 380.676 -10.6549 395.889 3.4979C402.257 9.51283 410.04 18.0045 411.102 28.9729C413.932 51.2635 405.441 70.3698 387.044 83.8149C371.831 94.7833 354.142 100.798 337.16 106.459C333.622 107.521 330.084 108.936 326.546 109.998C324.424 111.059 321.947 111.413 319.47 111.413ZM273.832 -42.4986C272.77 -42.1448 271.355 -41.791 270.294 -41.4372C267.464 -40.7295 264.987 -40.0219 262.864 -38.9604C256.142 -34.7146 253.312 -30.8226 258.619 -21.2695C262.864 -13.4854 268.525 -6.05521 274.186 1.02117C275.955 3.49791 278.077 5.97464 279.846 8.45137C293.29 26.4962 301.073 46.3101 303.55 67.5392C304.611 75.6771 306.027 84.5226 307.795 94.0757C308.857 99.7368 311.333 103.275 314.517 105.044C317.348 106.459 320.886 106.813 325.131 105.044C328.669 103.629 332.207 102.567 336.098 101.506C352.727 95.8448 370.062 90.1837 384.567 79.5691C401.549 67.1854 408.979 49.8483 406.502 29.3267C405.441 20.1274 398.365 12.6972 392.705 7.03609C378.199 -6.40905 360.156 -14.5469 344.589 -21.2695C330.084 -27.2844 314.517 -32.9455 298.597 -38.2528C293.29 -40.0219 287.63 -40.7295 281.615 -41.4372C279.139 -41.4372 276.308 -41.791 273.832 -42.4986Z" fill="#005087"/>
<path d="M497.426 682.124C497.072 682.124 496.364 682.124 496.011 682.124C490.704 681.77 486.458 678.939 484.336 675.047C482.567 671.155 483.274 666.909 486.105 663.371C488.581 660.187 491.765 658.418 494.949 656.295C496.364 655.587 497.78 654.526 498.841 653.818C499.549 653.464 499.902 653.464 500.61 653.464H500.964H502.379C503.44 653.464 504.502 653.464 505.209 653.464C511.577 653.464 516.53 656.295 517.945 661.248C519.714 667.263 518.299 672.217 513.7 675.755C508.393 680.001 503.44 682.124 497.426 682.124ZM501.317 658.064C500.256 658.772 498.841 659.479 497.78 660.187C494.949 661.956 492.119 663.725 489.996 666.202C488.227 668.325 487.873 670.448 488.935 672.57C489.996 675.047 492.827 676.462 496.011 676.816C501.317 677.17 505.563 675.401 510.516 671.509C513.346 669.386 514.054 666.202 512.992 662.31C511.931 658.418 507.332 658.064 505.209 658.064C504.148 658.064 503.086 658.064 502.025 658.064H501.317Z" fill="#005087"/>
<path d="M230.67 439.05C225.009 439.05 218.641 437.281 212.273 433.742C190.692 421.359 167.695 408.267 145.407 393.407C123.472 378.9 116.042 353.779 125.595 327.596C130.901 312.736 139.746 301.06 151.775 292.568C173.71 277 195.645 262.14 216.518 248.695C225.717 242.68 236.33 237.726 247.298 233.481C284.799 219.682 321.593 206.944 357.326 194.914C365.817 192.084 374.308 190.315 382.798 188.545C386.69 187.838 390.582 186.776 394.473 186.069C394.827 186.069 395.181 186.069 395.535 186.069C395.889 186.069 395.889 186.069 396.242 186.069C398.719 186.423 401.195 186.776 403.672 186.776C408.979 187.484 414.639 188.192 420.3 188.899C453.202 194.207 475.491 213.667 486.458 246.218C489.642 256.125 490.35 268.155 487.873 279.831C484.336 298.583 473.014 314.859 454.617 328.658C445.419 335.381 434.452 339.273 421.361 339.273C408.979 339.273 396.596 336.796 384.921 334.319C381.383 333.611 377.492 332.904 373.954 332.196C353.434 328.304 330.084 326.889 310.98 345.287C300.72 355.194 292.583 364.394 286.214 373.947C278.431 385.269 271.001 397.653 264.28 409.683C261.803 413.928 258.973 418.528 256.496 422.774C249.774 433.389 240.93 439.05 230.67 439.05ZM395.535 190.668C391.643 191.73 387.752 192.437 383.86 193.145C375.369 194.914 366.878 196.683 358.741 199.514C323.362 211.544 286.214 224.281 249.067 238.08C238.099 241.972 228.193 246.926 219.348 252.587C198.475 266.032 176.894 280.539 154.959 296.107C143.638 304.244 135.501 315.213 130.548 329.012C121.703 353.072 128.425 376.07 148.237 388.807C170.172 403.314 193.168 416.759 214.749 428.789C229.962 437.281 243.406 434.096 251.897 419.59C254.373 415.344 257.204 410.744 259.68 406.498C266.756 394.468 273.832 382.085 281.969 370.762C288.691 361.209 296.828 351.656 307.442 341.395C328.315 321.582 353.08 322.997 375.015 327.243C378.553 327.95 382.445 328.658 385.983 329.366C397.304 331.842 409.333 334.319 421.008 333.965C433.036 333.965 442.942 330.781 451.433 324.412C468.769 311.321 479.383 295.753 482.92 278.416C485.043 267.801 484.336 256.125 481.505 247.279C471.245 216.497 450.372 198.099 419.239 193.145C413.932 192.437 408.271 191.73 402.964 191.022C400.488 191.376 398.011 191.022 395.535 190.668Z" fill="#005087"/>
<path d="M210.504 391.638C207.673 391.638 204.843 391.284 201.659 390.93C188.923 388.807 176.894 384.561 165.573 377.839C155.667 371.824 149.298 362.979 148.237 352.718C146.822 342.103 151.067 331.135 159.558 322.643C167.342 314.859 176.894 308.136 186.8 302.829C211.211 290.445 232.439 278.416 251.897 265.678C264.633 257.186 275.601 251.879 285.861 248.341C298.951 244.095 311.687 239.142 324.07 234.188C344.589 226.05 366.17 217.912 388.105 212.251C388.459 212.251 388.813 212.251 389.167 212.251C389.167 212.251 389.167 212.251 389.52 212.251C402.257 211.544 412.163 212.959 421.008 216.851C443.296 226.404 456.033 242.68 457.094 264.263C457.801 275.585 453.556 287.261 445.773 295.753C437.636 304.952 426.314 310.259 414.286 310.613C400.488 311.321 387.751 308.136 375.369 304.952C371.831 304.244 368.293 303.183 364.755 302.475C353.434 299.999 340.698 297.168 327.961 299.291C310.272 302.475 294.352 310.967 279.492 325.827C268.171 337.15 258.619 349.887 250.128 361.917C247.298 366.163 244.114 370.055 240.93 373.947C239.868 375.362 238.453 376.777 237.392 378.193C231.023 387.392 222.179 391.638 210.504 391.638ZM389.52 217.205C367.939 222.512 346.712 230.65 326.192 238.788C313.456 243.741 300.72 248.695 287.63 252.941C277.723 256.125 267.464 261.432 254.727 269.57C235.269 282.308 213.688 294.338 189.277 306.721C179.724 311.675 170.88 318.043 163.45 325.474C156.02 332.904 152.483 342.103 153.544 351.302C154.605 360.148 159.912 367.224 168.403 372.532C179.017 378.9 190.338 383.146 202.367 385.269C216.164 387.392 226.424 384.208 233.146 375.362C234.208 373.947 235.623 372.532 236.684 371.116C239.868 367.224 242.698 363.332 245.883 359.44C254.727 347.057 263.926 334.319 275.601 322.643C291.167 307.075 308.149 297.876 326.9 294.691C340.698 292.215 354.142 295.399 365.817 297.876C369.355 298.583 372.892 299.645 376.43 300.352C389.167 303.537 401.195 306.367 413.932 306.014C424.899 305.66 434.805 300.706 441.881 292.922C448.957 285.138 452.495 274.877 452.141 264.97C451.08 245.157 439.758 230.65 419.239 221.805C411.101 218.266 401.903 216.851 389.874 217.559C389.874 217.559 389.874 217.205 389.52 217.205Z" fill="#005087"/>
<path d="M686.348 541.304C669.72 541.304 654.154 537.765 640.356 530.335C627.973 523.613 616.298 514.767 604.977 506.275C600.024 502.383 595.071 498.491 589.764 494.953C576.674 485.4 566.768 473.724 560.046 459.925C552.617 444.357 545.895 428.081 539.88 413.221C530.682 390.93 533.866 371.116 548.725 355.194C562.877 339.626 577.382 325.12 591.887 312.028C601.439 303.183 612.053 295.399 622.313 287.969L628.327 283.723C632.927 280.185 637.88 277 642.479 273.816C649.201 269.216 656.276 264.263 662.998 258.956C674.32 249.756 685.287 241.265 699.792 237.726C700.146 237.726 700.5 237.726 700.854 237.726C719.251 236.311 736.233 248.341 740.478 266.386C743.662 279.477 746.139 291.153 747.908 302.122C751.445 323.705 761.705 329.719 778.687 332.55C782.933 333.258 787.178 333.965 791.777 334.673C797.792 335.734 803.806 336.796 809.82 337.857C821.495 339.98 832.109 345.641 842.015 350.949C845.907 353.072 849.445 354.841 853.336 356.61C869.257 364.04 885.531 367.932 902.159 368.286C907.466 368.286 912.773 368.286 918.08 368.286C927.278 368.286 937.184 367.932 946.736 368.64C958.058 369.347 966.902 371.47 973.624 375.008C992.021 384.561 1002.28 409.329 997.328 432.327C992.021 456.033 978.931 474.785 957.704 488.231C937.892 500.614 915.249 506.983 893.314 512.998C874.21 518.305 851.214 523.259 827.51 518.659C814.066 516.182 801.33 518.305 784.348 525.382C769.489 531.75 753.568 535.642 736.94 536.704L731.633 537.058C723.496 537.765 715.359 538.473 707.222 539.534C700.5 540.95 693.424 541.304 686.348 541.304ZM701.208 242.68C687.764 245.864 677.858 253.648 666.536 262.848C659.814 268.155 652.739 273.108 645.663 278.062C641.064 281.246 636.111 284.431 631.511 287.969L625.497 292.215C615.237 299.645 604.623 307.429 595.425 315.921C580.92 329.012 566.768 343.518 552.617 358.733C539.173 373.239 536.696 391.284 544.833 411.452C550.848 426.312 557.57 442.588 564.999 458.156C571.014 471.247 580.566 482.569 592.948 491.415C598.255 494.953 603.208 498.845 608.161 502.737C619.129 511.229 630.45 519.72 642.479 526.443C660.876 536.35 682.457 539.181 706.514 534.935C714.652 533.519 723.142 532.812 731.28 532.104L736.586 531.75C752.861 530.335 768.427 526.797 782.579 520.782C795.315 515.475 810.528 510.521 828.571 513.706C851.214 517.951 873.148 513.352 891.899 508.044C913.48 502.03 935.769 496.015 954.873 483.985C974.686 471.601 987.422 453.91 992.375 431.266C996.974 410.39 987.776 388.1 971.148 379.608C965.133 376.424 956.996 374.655 946.383 373.947C937.184 373.239 927.278 373.593 918.08 373.593C912.773 373.593 907.466 373.593 901.805 373.593C884.823 373.239 867.488 369.347 850.86 361.563C846.968 359.794 843.077 357.671 839.185 355.548C829.279 350.595 819.373 345.288 808.405 343.165C802.391 342.103 796.376 341.042 790.362 339.98C786.117 339.273 781.517 338.565 777.272 337.857C759.229 334.673 746.492 327.597 742.601 303.183C740.832 292.568 738.355 280.892 735.171 267.801C731.28 252.233 716.774 241.972 700.854 243.034C701.561 242.68 701.561 242.68 701.208 242.68Z" fill="#005087"/>
</g>
</g>
<defs>
<clipPath id="clip0">
<rect width="1401" height="1019" fill="white" transform="translate(0 -126)"/>
</clipPath>
</defs>
</svg>
